<svg xmlns="http://www.w3.org/2000/svg" width="656" height="208" viewBox="0 0 656 208"><g transform="translate(303.42,66.00) scale(0.01700,-0.01700)" fill="#78716C"><path transform="translate(0.00,0)" d="M231 0V596H35V700H541V596H339V0Z"/><path transform="translate(1046.59,0)" d="M555 0V700H663V0ZM98 0V700H206V0ZM145 297V401H603V297Z"/><path transform="translate(2278.18,0)" d="M98 0V700H539V596H206V104H539V0ZM147 307V411H484V307Z"/></g><g transform="translate(127.81,122.00) scale(0.05800,-0.05800)" fill="#1C1917"><path transform="translate(0.00,0)" d="M382 -10Q309 -10 248.0 16.0Q187 42 142.0 90.5Q97 139 72.5 205.0Q48 271 48 350Q48 425 74.5 489.5Q101 554 148.0 603.0Q195 652 257.0 679.0Q319 706 391 706Q442 706 490.5 690.5Q539 675 578.5 647.5Q618 620 643 585L571 510Q542 539 512.5 558.5Q483 578 452.5 588.0Q422 598 391 598Q342 598 299.5 579.5Q257 561 225.5 528.0Q194 495 176.0 449.5Q158 404 158 350Q158 293 175.5 246.5Q193 200 225.0 167.0Q257 134 301.5 116.5Q346 99 400 99Q433 99 465.0 108.0Q497 117 525.0 134.0Q553 151 576 174L630 86Q607 59 567.5 37.0Q528 15 479.5 2.5Q431 -10 382 -10Z"/><path transform="translate(687.62,0)" d="M308 -10Q231 -10 170.5 25.5Q110 61 75.0 122.5Q40 184 40 263Q40 342 75.0 403.5Q110 465 170.5 500.5Q231 536 308 536Q384 536 444.5 500.5Q505 465 540.0 403.5Q575 342 575 263Q575 184 540.0 122.5Q505 61 444.5 25.5Q384 -10 308 -10ZM308 84Q355 84 392.0 107.5Q429 131 450.0 171.5Q471 212 470 263Q471 315 450.0 355.5Q429 396 392.0 419.0Q355 442 308 442Q261 442 223.5 418.5Q186 395 165.0 354.5Q144 314 145 263Q144 212 165.0 171.5Q186 131 223.5 107.5Q261 84 308 84Z"/><path transform="translate(1311.24,0)" d="M70 0V525H174V413L155 401Q163 427 180.5 451.0Q198 475 223.5 493.5Q249 512 278.5 523.0Q308 534 339 534Q384 534 418.0 519.0Q452 504 474.0 474.0Q496 444 506 399L490 403L497 420Q508 443 527.5 463.5Q547 484 572.0 500.0Q597 516 625.0 525.0Q653 534 680 534Q739 534 777.5 510.0Q816 486 835.5 437.0Q855 388 855 315V0H751V309Q751 354 739.5 382.5Q728 411 705.0 425.0Q682 439 646 439Q618 439 593.5 429.5Q569 420 551.0 403.0Q533 386 523.0 363.5Q513 341 513 314V0H409V311Q409 352 397.0 380.5Q385 409 362.0 424.0Q339 439 306 439Q278 439 254.0 429.5Q230 420 212.0 403.5Q194 387 184.0 364.5Q174 342 174 316V0Z"/><path transform="translate(2240.86,0)" d="M72 -220V525H176V405L160 414Q166 444 194.0 471.5Q222 499 262.5 516.5Q303 534 346 534Q417 534 472.0 499.0Q527 464 559.0 403.0Q591 342 591 263Q591 185 559.5 123.5Q528 62 473.0 26.5Q418 -9 349 -9Q303 -9 260.0 9.5Q217 28 187.0 57.0Q157 86 150 117L176 131V-220ZM332 86Q378 86 414.0 109.0Q450 132 471.0 172.0Q492 212 492 263Q492 314 471.5 353.5Q451 393 415.0 416.0Q379 439 332 439Q285 439 249.0 416.5Q213 394 192.0 354.0Q171 314 171 263Q171 212 192.0 172.0Q213 132 249.0 109.0Q285 86 332 86Z"/><path transform="translate(2880.48,0)" d="M308 -10Q231 -10 170.5 25.5Q110 61 75.0 122.5Q40 184 40 263Q40 342 75.0 403.5Q110 465 170.5 500.5Q231 536 308 536Q384 536 444.5 500.5Q505 465 540.0 403.5Q575 342 575 263Q575 184 540.0 122.5Q505 61 444.5 25.5Q384 -10 308 -10ZM308 84Q355 84 392.0 107.5Q429 131 450.0 171.5Q471 212 470 263Q471 315 450.0 355.5Q429 396 392.0 419.0Q355 442 308 442Q261 442 223.5 418.5Q186 395 165.0 354.5Q144 314 145 263Q144 212 165.0 171.5Q186 131 223.5 107.5Q261 84 308 84Z"/><path transform="translate(3504.10,0)" d="M256 -10Q200 -10 158.5 16.0Q117 42 94.5 89.0Q72 136 72 201V525H175V229Q175 183 189.5 149.5Q204 116 231.5 98.0Q259 80 298 80Q327 80 351.0 89.5Q375 99 392.5 116.0Q410 133 420.0 157.0Q430 181 430 209V525H533V0H430V110L448 122Q436 85 407.5 55.0Q379 25 340.0 7.5Q301 -10 256 -10Z"/><path transform="translate(4117.72,0)" d="M72 0V525H175V417L157 405Q167 440 196.0 469.5Q225 499 265.0 517.5Q305 536 347 536Q407 536 447.0 512.5Q487 489 507.0 441.0Q527 393 527 320V0H424V313Q424 358 412.0 387.5Q400 417 375.0 430.5Q350 444 313 442Q283 442 258.0 432.5Q233 423 214.5 406.0Q196 389 185.5 366.5Q175 344 175 318V0H124Q111 0 98.0 0.0Q85 0 72 0Z"/><path transform="translate(4721.34,0)" d="M291 -10Q219 -10 162.5 25.5Q106 61 73.0 122.5Q40 184 40 263Q40 342 72.5 403.5Q105 465 161.0 500.5Q217 536 288 536Q327 536 363.5 523.5Q400 511 429.0 489.5Q458 468 474.5 442.5Q491 417 491 391L461 389V740H564V0H461V125H481Q481 101 465.0 77.5Q449 54 422.5 34.0Q396 14 361.5 2.0Q327 -10 291 -10ZM305 79Q352 79 388.0 103.0Q424 127 444.5 168.5Q465 210 465 263Q465 316 444.5 357.5Q424 399 388.0 423.0Q352 447 305 447Q258 447 222.0 423.0Q186 399 165.5 357.5Q145 316 145 263Q145 210 165.5 168.5Q186 127 222.0 103.0Q258 79 305 79Z"/><path transform="translate(5363.97,0)" d="M89 0V525H192V0ZM139 641Q106 641 88.0 658.0Q70 675 70 706Q70 735 88.5 753.0Q107 771 139 771Q172 771 190.0 754.0Q208 737 208 706Q208 677 189.5 659.0Q171 641 139 641Z"/><path transform="translate(5650.59,0)" d="M72 0V525H175V417L157 405Q167 440 196.0 469.5Q225 499 265.0 517.5Q305 536 347 536Q407 536 447.0 512.5Q487 489 507.0 441.0Q527 393 527 320V0H424V313Q424 358 412.0 387.5Q400 417 375.0 430.5Q350 444 313 442Q283 442 258.0 432.5Q233 423 214.5 406.0Q196 389 185.5 366.5Q175 344 175 318V0H124Q111 0 98.0 0.0Q85 0 72 0Z"/><path transform="translate(6254.21,0)" d="M307 -230Q251 -230 195.5 -212.5Q140 -195 106 -167L144 -87Q164 -102 191.0 -113.5Q218 -125 248.0 -131.5Q278 -138 307 -138Q362 -138 399.0 -120.0Q436 -102 455.0 -67.0Q474 -32 474 20V121L485 114Q480 83 452.5 54.5Q425 26 384.0 8.0Q343 -10 300 -10Q225 -10 166.5 25.5Q108 61 74.0 122.5Q40 184 40 263Q40 342 73.5 403.5Q107 465 165.5 500.5Q224 536 297 536Q327 536 355.0 528.5Q383 521 407.0 507.5Q431 494 450.0 478.0Q469 462 481.0 444.0Q493 426 496 410L474 402V525H577V32Q577 -31 558.5 -79.5Q540 -128 505.0 -161.5Q470 -195 420.0 -212.5Q370 -230 307 -230ZM311 85Q360 85 398.0 108.0Q436 131 457.0 171.0Q478 211 478 263Q478 315 456.5 355.5Q435 396 397.5 419.0Q360 442 311 442Q263 442 225.5 418.5Q188 395 166.5 354.5Q145 314 145 263Q145 212 166.5 171.5Q188 131 225.5 108.0Q263 85 311 85Z"/></g><g transform="translate(263.75,166.00) scale(0.03000,-0.03000)" fill="#1C1917"><path transform="translate(0.00,0)" d="M98 0V700H204L459 285L408 286L666 700H766V0H658V287Q658 377 662.5 449.0Q667 521 678 592L692 555L463 201H397L175 551L186 592Q197 525 201.5 454.5Q206 384 206 287V0Z"/><path transform="translate(1330.67,0)" d="M72 0V100H185V600H72V700H406V600H293V100H406V0Z"/><path transform="translate(2275.33,0)" d="M98 0V700H195L623 127L607 118Q603 143 600.0 172.5Q597 202 594.5 235.5Q592 269 590.5 306.5Q589 344 588.0 385.0Q587 426 587 470V700H695V0H596L175 552L186 566Q191 505 194.5 462.5Q198 420 200.5 390.5Q203 361 204.0 342.5Q205 324 205.5 312.0Q206 300 206 291V0Z"/><path transform="translate(3535.00,0)" d="M98 0V700H372Q447 700 507.5 675.0Q568 650 611.0 603.0Q654 556 677.0 492.0Q700 428 700 350Q700 272 677.0 207.5Q654 143 611.5 96.5Q569 50 508.0 25.0Q447 0 372 0ZM206 93 203 104H367Q420 104 461.5 121.0Q503 138 531.5 169.5Q560 201 575.0 247.0Q590 293 590 350Q590 407 575.0 452.5Q560 498 531.0 530.0Q502 562 461.0 579.0Q420 596 367 596H200L206 605Z"/></g><path d="M218.0,186.0 C284.0,177.0 372.0,177.0 438.0,186.0" fill="none" stroke="#B45309" stroke-width="3.2" stroke-linecap="round"/></svg>