<svg xmlns="http://www.w3.org/2000/svg" width="599" height="116" viewBox="0 0 599 116"><g transform="translate(44.00,76.56) scale(0.04400,-0.04400)" fill="#1C1917"><path transform="translate(0.00,0)" d="M230.48280542986424 0V623.9285067873303H29.828054298642535V700H515.6574660633485V623.9285067873303H308.48552036199095V0Z"/><path transform="translate(551.82,0)" d="M72.51719457013574 0V740H148.10588235294117V408.2076923076923L133.20904977375565 392.58733031674205Q143.7262443438914 433.793665158371 173.7606334841629 465.36244343891406Q203.79502262443438 496.931221719457 244.570814479638 515.1726244343891Q285.3466063348416 533.4140271493212 327.3466063348416 533.4140271493212Q387.3466063348416 533.4140271493212 427.08800904977375 510.17262443438915Q466.82941176470587 486.931221719457 486.31221719457017 438.931221719457Q505.7950226244344 390.931221719457 505.7950226244344 317.41402714932127V0H430.206334841629V313Q430.206334841629 364.72352941176473 416.6547511312217 398.3610859728507Q403.1031674208145 431.9986425339367 375.2585972850679 448.0846153846154Q347.41402714932127 464.17058823529413 305.2420814479638 463.2049773755656Q271.62171945701357 463.2049773755656 243.00135746606333 451.6361990950226Q214.3809954751131 440.06742081447965 193.29502262443438 419.96425339366516Q172.20904977375565 399.8610859728507 160.1574660633484 373.7407239819005Q148.10588235294117 347.62036199095024 148.10588235294117 318V0H110.55294117647058Q103.75927601809954 0 94.63823529411764 0.0Q85.51719457013574 0 72.51719457013574 0Z"/><path transform="translate(1134.64,0)" d="M303.03574660633484 -10Q225.13891402714933 -10 164.7076923076923 24.241402714932125Q104.2764705882353 58.48280542986425 70.06945701357466 119.0Q35.86244343891403 179.51719457013576 35.86244343891403 259.068778280543Q35.86244343891403 319.51719457013576 55.086651583710406 369.48280542986424Q74.31085972850678 419.4484162895928 108.51787330316742 456.431221719457Q142.72488687782806 493.41402714932127 190.6733031674208 513.6554298642534Q238.62171945701357 533.8968325791856 295.07013574660635 533.8968325791856Q347.62171945701357 533.8968325791856 391.3631221719457 515.1726244343891Q435.1045248868778 496.4484162895928 466.3115384615385 462.70701357466066Q497.5185520361991 428.9656108597285 513.7255656108597 382.98280542986424Q529.9325791855204 337 528.4153846153846 282L527.4153846153846 246.7923076923077H91.69185520361991L80.58733031674208 310.17330316742084H470.4814479638009L451.8610859728507 292.6561085972851V316.6561085972851Q450.41266968325795 353.27647058823527 431.15407239819007 386.51719457013576Q411.8954751131222 419.7579185520362 377.206334841629 440.96425339366516Q342.51719457013576 462.17058823529413 294.5529411764706 462.17058823529413Q239.00135746606335 462.17058823529413 198.12239819004526 439.3432126696832Q157.24343891402714 416.5158371040724 134.88167420814477 372.61968325791855Q112.51990950226244 328.72352941176473 112.51990950226244 264Q112.51990950226244 202.2764705882353 136.55429864253392 156.6045248868778Q160.58868778280544 110.93257918552035 205.43325791855204 86.08800904977375Q250.27782805429865 61.24343891402715 312.5185520361991 61.24343891402715Q350.4841628959276 61.24343891402715 386.82873303167423 73.72624434389141Q423.17330316742084 86.20904977375565 467.3452488687783 123.31221719457014L505.89819004524884 68.93122171945701Q482.93257918552035 46.48280542986425 450.7599547511312 28.741402714932125Q418.58733031674205 11 380.8631221719457 0.5Q343.1389140271493 -10 303.03574660633484 -10Z"/></g><g transform="translate(131.27,76.56) scale(0.04400,-0.04400)" fill="#1C1917"><path transform="translate(0.00,0)" d="M390.5543212890625 -10Q315.31390380859375 -10 252.37899780273438 16.20367431640625Q189.444091796875 42.4073486328125 143.12020874023438 90.9073486328125Q96.79632568359375 139.4073486328125 71.58346557617188 205.61102294921875Q46.37060546875 271.814697265625 46.37060546875 351.01837158203125Q46.37060546875 427.0367431640625 73.2779541015625 492.0459289550781Q100.185302734375 557.0551147460938 148.20367431640625 605.9532775878906Q196.2220458984375 654.8514404296875 260.1569519042969 681.8514404296875Q324.09185791015625 708.8514404296875 398.94329833984375 708.8514404296875Q449.53594970703125 708.8514404296875 497.832275390625 694.1661376953125Q546.1286010742188 679.4808349609375 586.2396240234375 652.7955322265625Q626.3506469726562 626.1102294921875 653.3873901367188 590.9065551757812L569.7779541015625 500.42730712890625Q543.8330688476562 526.9832153320312 516.3698120117188 545.3630065917969Q488.90655517578125 563.7427978515625 459.4249267578125 573.4372863769531Q429.94329833984375 583.1317749023438 398.53594970703125 583.1317749023438Q352.591064453125 583.1317749023438 312.53515625 566.0574951171875Q272.479248046875 548.9832153320312 242.81231689453125 518.2236328125Q213.1453857421875 487.46405029296875 196.16375732421875 444.7136535644531Q179.18212890625 401.9632568359375 179.18212890625 350.4073486328125Q179.18212890625 297.27716064453125 195.76559448242188 253.93411254882812Q212.34906005859375 210.591064453125 242.71966552734375 179.83148193359375Q273.09027099609375 149.0718994140625 315.4516906738281 132.69210815429688Q357.8131103515625 116.31231689453125 409.3690185546875 116.31231689453125Q441.75799560546875 116.31231689453125 472.7396240234375 125.31231689453125Q503.72125244140625 134.31231689453125 530.4992065429688 150.80313110351562Q557.2771606445312 167.2939453125 578.8514404296875 189.27557373046875L642.8314819335938 86.20367431640625Q619.220458984375 59 579.0075988769531 37.0Q538.7947387695312 15 489.5818786621094 2.5Q440.3690185546875 -10 390.5543212890625 -10Z"/><path transform="translate(690.82,0)" d="M312.68450927734375 -10Q233.64776611328125 -10 171.62020874023438 25.601837158203125Q109.5926513671875 61.20367431640625 73.7779541015625 122.9073486328125Q37.9632568359375 184.61102294921875 37.9632568359375 264.01837158203125Q37.9632568359375 343.42572021484375 73.7779541015625 405.12939453125Q109.5926513671875 466.83306884765625 171.62020874023438 502.4349060058594Q233.64776611328125 538.0367431640625 312.68450927734375 538.0367431640625Q390.9249267578125 538.0367431640625 452.85064697265625 502.4349060058594Q514.7763671875 466.83306884765625 550.4892272949219 405.12939453125Q586.2020874023438 343.42572021484375 586.2020874023438 264.01837158203125Q586.2020874023438 184.61102294921875 550.4892272949219 122.9073486328125Q514.7763671875 61.20367431640625 452.85064697265625 25.601837158203125Q390.9249267578125 -10 312.68450927734375 -10ZM312.68450927734375 99.479248046875Q355.61102294921875 99.479248046875 389.4540710449219 121.04434204101562Q423.297119140625 142.60943603515625 442.46405029296875 179.85064697265625Q461.6309814453125 217.09185791015625 460.83465576171875 264.01837158203125Q461.6309814453125 311.94488525390625 442.46405029296875 349.18609619140625Q423.297119140625 386.42730712890625 389.4540710449219 407.59423828125Q355.61102294921875 428.76116943359375 312.68450927734375 428.76116943359375Q269.5543212890625 428.76116943359375 235.3131103515625 407.1960754394531Q201.0718994140625 385.6309814453125 181.80313110351562 348.3897705078125Q162.53436279296875 311.1485595703125 163.3306884765625 264.01837158203125Q162.53436279296875 217.09185791015625 181.80313110351562 179.85064697265625Q201.0718994140625 142.60943603515625 235.3131103515625 121.04434204101562Q269.5543212890625 99.479248046875 312.68450927734375 99.479248046875Z"/><path transform="translate(1321.64,0)" d="M70 0V527.0367431640625H191.108642578125L192.738037109375 420.7396240234375L172.92333984375 412.8131103515625Q182.34906005859375 438.8131103515625 200.25640869140625 461.2855529785156Q218.16375732421875 483.75799560546875 242.95089721679688 500.5267639160156Q267.738037109375 517.2955322265625 295.9141540527344 526.8698120117188Q324.09027099609375 536.444091796875 353.05352783203125 536.444091796875Q396.01678466796875 536.444091796875 429.40576171875 522.5643005371094Q462.79473876953125 508.68450927734375 485.40576171875 479.90655517578125Q508.01678466796875 451.12860107421875 519.4425048828125 406.12860107421875L500.38739013671875 409.517578125L507.591064453125 425.90655517578125Q519.40576171875 449.517578125 539.2112731933594 469.5083923339844Q559.0167846679688 489.49920654296875 584.0167846679688 504.68450927734375Q609.0167846679688 519.8698120117188 636.6094360351562 528.1569519042969Q664.2020874023438 536.444091796875 690.591064453125 536.444091796875Q751.0167846679688 536.444091796875 790.8406677246094 512.2404174804688Q830.66455078125 488.0367431640625 850.7755737304688 439.1385803222656Q870.8865966796875 390.24041748046875 870.8865966796875 318.05511474609375V0H746.7228393554688V309.814697265625Q746.7228393554688 350.13018798828125 736.1393737792969 375.8805847167969Q725.555908203125 401.6309814453125 704.4908142089844 414.408935546875Q683.4257202148438 427.1868896484375 650.88818359375 427.1868896484375Q625.5359497070312 427.1868896484375 603.4800415039062 418.70526123046875Q581.4241333007812 410.2236328125 565.3590393066406 394.85302734375Q549.2939453125 379.482421875 540.3123168945312 359.3246765136719Q531.3306884765625 339.16693115234375 531.3306884765625 314.814697265625V0H407.16693115234375V311.4073486328125Q407.16693115234375 348.53753662109375 396.185302734375 374.2879333496094Q385.20367431640625 400.038330078125 364.1385803222656 413.61260986328125Q343.073486328125 427.1868896484375 312.9249267578125 427.1868896484375Q287.57269287109375 427.1868896484375 265.9149475097656 418.70526123046875Q244.2572021484375 410.2236328125 228.19210815429688 395.2511901855469Q212.12701416015625 380.27874755859375 203.1453857421875 360.1210021972656Q194.16375732421875 339.9632568359375 194.16375732421875 316.4073486328125V0Z"/><path transform="translate(2264.45,0)" d="M71.5926513671875 -220V527.0367431640625H192.7012939453125L194.94171142578125 407.444091796875L173.849853515625 416.444091796875Q180.05352783203125 447.46246337890625 207.849853515625 474.8606262207031Q235.64617919921875 502.2587890625 276.349853515625 519.3514404296875Q317.05352783203125 536.444091796875 361.27557373046875 536.444091796875Q431.2572021484375 536.444091796875 485.5443420410156 501.3422546386719Q539.8314819335938 466.24041748046875 571.3222961425781 404.9349060058594Q602.8131103515625 343.62939453125 602.8131103515625 264.01837158203125Q602.8131103515625 185.4073486328125 571.6186218261719 123.70367431640625Q540.4241333007812 62 485.9333190917969 26.5Q431.4425048828125 -9 362.64617919921875 -9Q316.849853515625 -9 274.5627136230469 8.990814208984375Q232.27557373046875 26.98162841796875 202.8865966796875 55.879791259765625Q173.49761962890625 84.7779541015625 166.09027099609375 117L195.9600830078125 131V-220ZM337.702880859375 100.2572021484375Q380.24041748046875 100.2572021484375 412.98162841796875 121.220458984375Q445.72283935546875 142.1837158203125 464.5842590332031 179.12860107421875Q483.4456787109375 216.073486328125 483.4456787109375 264.01837158203125Q483.4456787109375 311.9632568359375 464.982421875 348.61181640625Q446.5191650390625 385.2603759765625 413.7779541015625 406.2236328125Q381.0367431640625 427.1868896484375 337.702880859375 427.1868896484375Q294.3690185546875 427.1868896484375 261.5259704589844 406.6217956542969Q228.68292236328125 386.05670166015625 209.82150268554688 349.0099792480469Q190.9600830078125 311.9632568359375 190.9600830078125 264.01837158203125Q190.9600830078125 216.073486328125 209.82150268554688 179.12860107421875Q228.68292236328125 142.1837158203125 261.5259704589844 121.220458984375Q294.3690185546875 100.2572021484375 337.702880859375 100.2572021484375Z"/><path transform="translate(2912.27,0)" d="M312.68450927734375 -10Q233.64776611328125 -10 171.62020874023438 25.601837158203125Q109.5926513671875 61.20367431640625 73.7779541015625 122.9073486328125Q37.9632568359375 184.61102294921875 37.9632568359375 264.01837158203125Q37.9632568359375 343.42572021484375 73.7779541015625 405.12939453125Q109.5926513671875 466.83306884765625 171.62020874023438 502.4349060058594Q233.64776611328125 538.0367431640625 312.68450927734375 538.0367431640625Q390.9249267578125 538.0367431640625 452.85064697265625 502.4349060058594Q514.7763671875 466.83306884765625 550.4892272949219 405.12939453125Q586.2020874023438 343.42572021484375 586.2020874023438 264.01837158203125Q586.2020874023438 184.61102294921875 550.4892272949219 122.9073486328125Q514.7763671875 61.20367431640625 452.85064697265625 25.601837158203125Q390.9249267578125 -10 312.68450927734375 -10ZM312.68450927734375 99.479248046875Q355.61102294921875 99.479248046875 389.4540710449219 121.04434204101562Q423.297119140625 142.60943603515625 442.46405029296875 179.85064697265625Q461.6309814453125 217.09185791015625 460.83465576171875 264.01837158203125Q461.6309814453125 311.94488525390625 442.46405029296875 349.18609619140625Q423.297119140625 386.42730712890625 389.4540710449219 407.59423828125Q355.61102294921875 428.76116943359375 312.68450927734375 428.76116943359375Q269.5543212890625 428.76116943359375 235.3131103515625 407.1960754394531Q201.0718994140625 385.6309814453125 181.80313110351562 348.3897705078125Q162.53436279296875 311.1485595703125 163.3306884765625 264.01837158203125Q162.53436279296875 217.09185791015625 181.80313110351562 179.85064697265625Q201.0718994140625 142.60943603515625 235.3131103515625 121.04434204101562Q269.5543212890625 99.479248046875 312.68450927734375 99.479248046875Z"/><path transform="translate(3543.09,0)" d="M254.57427978515625 -10.20367431640625Q197.555908203125 -10.20367431640625 155.95407104492188 15.5926513671875Q114.35223388671875 41.38897705078125 91.95407104492188 88.69448852539062Q69.555908203125 136 69.555908203125 201.814697265625V527.0367431640625H192.92333984375V227.57427978515625Q192.92333984375 186.46246337890625 205.99761962890625 156.73043823242188Q219.0718994140625 126.9984130859375 243.82229614257812 111.03515625Q268.57269287109375 95.0718994140625 303.702880859375 95.0718994140625Q329.8514404296875 95.0718994140625 351.5091857910156 103.55352783203125Q373.16693115234375 112.03515625 388.9356994628906 127.40576171875Q404.7044677734375 142.7763671875 413.68609619140625 164.23043823242188Q422.667724609375 185.68450927734375 422.667724609375 210.62939453125V527.0367431640625H546.03515625V0H426.13018798828125L423.68609619140625 109.5926513671875L445.75958251953125 121.5926513671875Q433.9632568359375 84.38897705078125 405.66693115234375 54.490814208984375Q377.37060546875 24.5926513671875 338.37060546875 7.194488525390625Q299.37060546875 -10.20367431640625 254.57427978515625 -10.20367431640625Z"/><path transform="translate(4167.91,0)" d="M71.5926513671875 0V527.0367431640625H191.90496826171875L193.94171142578125 419.0367431640625L170.849853515625 407.0367431640625Q181.05352783203125 442.64776611328125 209.95169067382812 472.14776611328125Q238.849853515625 501.64776611328125 278.849853515625 519.8422546386719Q318.849853515625 538.0367431640625 361.46087646484375 538.0367431640625Q421.46087646484375 538.0367431640625 461.86822509765625 514.2312316894531Q502.27557373046875 490.42572021484375 522.5810852050781 442.3238830566406Q542.8865966796875 394.2220458984375 542.8865966796875 322.0367431640625V0H419.5191650390625V313Q419.5191650390625 353.31549072265625 408.53753662109375 379.8622131347656Q397.555908203125 406.408935546875 374.79632568359375 418.7887268066406Q352.0367431640625 431.16851806640625 318.702880859375 429.57586669921875Q291.75799560546875 429.57586669921875 269.3039245605469 421.09423828125Q246.849853515625 412.61260986328125 230.28475952148438 397.24200439453125Q213.71966552734375 381.87139892578125 204.33987426757812 361.7136535644531Q194.9600830078125 341.555908203125 194.9600830078125 318V0H133.7763671875Q115.68450927734375 0 100.13858032226562 0.0Q84.5926513671875 0 71.5926513671875 0Z"/><path transform="translate(4783.73,0)" d="M284.27874755859375 -10.20367431640625Q213.50079345703125 -10.20367431640625 158.0191650390625 25.29632568359375Q102.53753662109375 60.79632568359375 70.25039672851562 122.5Q37.9632568359375 184.20367431640625 37.9632568359375 263.814697265625Q37.9632568359375 343.2220458984375 69.95407104492188 405.0275573730469Q101.94488525390625 466.83306884765625 157.23202514648438 502.4349060058594Q212.5191650390625 538.0367431640625 282.90814208984375 538.0367431640625Q320.8897705078125 538.0367431640625 356.2695617675781 526.1477661132812Q391.64935302734375 514.2587890625 419.83465576171875 493.573486328125Q448.01995849609375 472.88818359375 464.7236328125 447.7955322265625Q481.42730712890625 422.702880859375 482.64935302734375 396.49920654296875L449.59423828125 392.05511474609375V740H573.1653442382812V0H453.87139892578125L450.61260986328125 123.57427978515625L474.8897705078125 121.7412109375Q473.87139892578125 97.3338623046875 457.667724609375 74.13937377929688Q441.46405029296875 50.94488525390625 415.167724609375 31.75958251953125Q388.87139892578125 12.57427978515625 354.6769104003906 1.185302734375Q320.482421875 -10.20367431640625 284.27874755859375 -10.20367431640625ZM307.8514404296875 94.27557373046875Q351.185302734375 94.27557373046875 384.0283508300781 116.13699340820312Q416.87139892578125 137.9984130859375 435.33465576171875 176.13778686523438Q453.79791259765625 214.27716064453125 453.79791259765625 263.814697265625Q453.79791259765625 313.35223388671875 435.33465576171875 351.59344482421875Q416.87139892578125 389.83465576171875 384.0283508300781 411.59423828125Q351.185302734375 433.35382080078125 307.8514404296875 433.35382080078125Q264.517578125 433.35382080078125 231.7763671875 411.59423828125Q199.03515625 389.83465576171875 180.5718994140625 351.59344482421875Q162.108642578125 313.35223388671875 162.108642578125 263.814697265625Q162.108642578125 214.27716064453125 180.5718994140625 176.13778686523438Q199.03515625 137.9984130859375 231.7763671875 116.13699340820312Q264.517578125 94.27557373046875 307.8514404296875 94.27557373046875Z"/><path transform="translate(5431.55,0)" d="M85.7412109375 0V527.0367431640625H209.108642578125V0ZM146.332275390625 639.1669311523438Q109.05511474609375 639.1669311523438 88.50918579101562 657.7963256835938Q67.9632568359375 676.4257202148438 67.9632568359375 710.4808349609375Q67.9632568359375 742.1286010742188 89.00918579101562 761.961669921875Q110.05511474609375 781.7947387695312 146.332275390625 781.7947387695312Q183.60943603515625 781.7947387695312 204.15536499023438 763.1653442382812Q224.7012939453125 744.5359497070312 224.7012939453125 710.4808349609375Q224.7012939453125 678.8330688476562 203.65536499023438 659.0Q182.60943603515625 639.1669311523438 146.332275390625 639.1669311523438Z"/><path transform="translate(5731.36,0)" d="M71.5926513671875 0V527.0367431640625H191.90496826171875L193.94171142578125 419.0367431640625L170.849853515625 407.0367431640625Q181.05352783203125 442.64776611328125 209.95169067382812 472.14776611328125Q238.849853515625 501.64776611328125 278.849853515625 519.8422546386719Q318.849853515625 538.0367431640625 361.46087646484375 538.0367431640625Q421.46087646484375 538.0367431640625 461.86822509765625 514.2312316894531Q502.27557373046875 490.42572021484375 522.5810852050781 442.3238830566406Q542.8865966796875 394.2220458984375 542.8865966796875 322.0367431640625V0H419.5191650390625V313Q419.5191650390625 353.31549072265625 408.53753662109375 379.8622131347656Q397.555908203125 406.408935546875 374.79632568359375 418.7887268066406Q352.0367431640625 431.16851806640625 318.702880859375 429.57586669921875Q291.75799560546875 429.57586669921875 269.3039245605469 421.09423828125Q246.849853515625 412.61260986328125 230.28475952148438 397.24200439453125Q213.71966552734375 381.87139892578125 204.33987426757812 361.7136535644531Q194.9600830078125 341.555908203125 194.9600830078125 318V0H133.7763671875Q115.68450927734375 0 100.13858032226562 0.0Q84.5926513671875 0 71.5926513671875 0Z"/><path transform="translate(6347.18,0)" d="M309.444091796875 -230Q250.185302734375 -230 191.63018798828125 -211.99081420898438Q133.0750732421875 -193.98162841796875 96.83465576171875 -165.16693115234375L141.1485595703125 -73.76116943359375Q161.555908203125 -88.5574951171875 187.94488525390625 -99.75198364257812Q214.3338623046875 -110.94647216796875 243.62100219726562 -117.14096069335938Q272.90814208984375 -123.33544921875 302.11181640625 -123.33544921875Q355.482421875 -123.33544921875 390.85302734375 -106.45565795898438Q426.2236328125 -89.57586669921875 444.1034240722656 -56.20526123046875Q461.98321533203125 -22.83465576171875 461.98321533203125 27.12860107421875V123.8514404296875L479.90814208984375 117.46246337890625Q474.297119140625 85.8514404296875 446.8989562988281 57.860626220703125Q419.50079345703125 29.86981201171875 378.7044677734375 12.4808349609375Q337.90814208984375 -4.90814208984375 294.50079345703125 -4.90814208984375Q220.31549072265625 -4.90814208984375 162.63018798828125 29.878997802734375Q104.94488525390625 64.6661376953125 71.45407104492188 125.3514404296875Q37.9632568359375 186.0367431640625 37.9632568359375 264.83306884765625Q37.9632568359375 344.24041748046875 70.95407104492188 405.74041748046875Q103.94488525390625 467.24041748046875 161.426513671875 502.6385803222656Q218.90814208984375 538.0367431640625 291.09344482421875 538.0367431640625Q321.09344482421875 538.0367431640625 348.8897705078125 530.8422546386719Q376.68609619140625 523.6477661132812 400.482421875 510.7587890625Q424.27874755859375 497.86981201171875 443.0750732421875 482.073486328125Q461.87139892578125 466.27716064453125 473.7695617675781 448.27716064453125Q485.667724609375 430.27716064453125 488.87139892578125 413.2587890625L463.0015869140625 405.05511474609375L465.24200439453125 527.0367431640625H585.5543212890625V36.073486328125Q585.5543212890625 -27.7412109375 566.64697265625 -77.055908203125Q547.7396240234375 -126.37060546875 511.9249267578125 -160.48162841796875Q476.1102294921875 -194.5926513671875 424.9900207519531 -212.29632568359375Q373.86981201171875 -230 309.444091796875 -230ZM313.64776611328125 100.27557373046875Q358.98162841796875 100.27557373046875 393.6210021972656 121.23883056640625Q428.2603759765625 142.20208740234375 447.2236328125 179.04513549804688Q466.1868896484375 215.88818359375 466.1868896484375 264.42572021484375Q466.1868896484375 312.9632568359375 446.8254699707031 350.3063049316406Q427.46405029296875 387.64935302734375 393.22283935546875 408.61260986328125Q358.98162841796875 429.57586669921875 313.64776611328125 429.57586669921875Q269.1102294921875 429.57586669921875 234.97085571289062 408.2144470214844Q200.83148193359375 386.85302734375 181.47006225585938 349.5099792480469Q162.108642578125 312.16693115234375 162.108642578125 264.42572021484375Q162.108642578125 216.68450927734375 181.47006225585938 179.44329833984375Q200.83148193359375 142.20208740234375 234.97085571289062 121.23883056640625Q269.1102294921875 100.27557373046875 313.64776611328125 100.27557373046875Z"/></g><g transform="translate(439.41,76.56) scale(0.04400,-0.04400)" fill="#1C1917"><path transform="translate(286.82,0)" d="M103.17194570135747 0V700H179.17466063348417L447.62171945701357 263.27782805429865L412.137556561086 263.7606334841629L684.1018099547512 700H754.6217194570136V0H676.6190045248869V320.1004524886878Q676.6190045248869 410.1004524886878 679.5674208144796 482.1004524886878Q682.5158371040724 554.1004524886878 690.9298642533937 625.1004524886878L705.4470588235295 597.4099547511312L453.69049773755654 203.068778280543H400.1031674208145L156.3809954751131 592.3755656108598L166.86380090497738 625.1004524886878Q175.27782805429865 558.1004524886878 178.2262443438914 487.6004524886878Q181.17466063348417 417.1004524886878 181.17466063348417 320.1004524886878V0Z"/><path transform="translate(1151.64,0)" d="M92.62036199095023 0V522.4140271493212H168.20904977375565V0ZM129.69049773755657 634.793665158371Q102.37963800904977 634.793665158371 87.48280542986424 649.2076923076922Q72.58597285067873 663.6217194570136 72.58597285067873 689.4497737556561Q72.58597285067873 713.7950226244344 87.72420814479638 728.9504524886878Q102.86244343891403 744.1058823529412 129.69049773755657 744.1058823529412Q157.00135746606335 744.1058823529412 171.89819004524887 729.69185520362Q186.79502262443438 715.2778280542987 186.79502262443438 689.4497737556561Q186.79502262443438 665.1045248868778 171.65678733031672 649.9490950226244Q156.51855203619908 634.793665158371 129.69049773755657 634.793665158371Z"/><path transform="translate(1417.45,0)" d="M72.51719457013574 0V522.4140271493212H147.07149321266968L149.6574660633484 413.37963800904976L137.86380090497738 407.58597285067873Q148.3809954751131 441.5515837104072 177.3809954751131 470.01719457013576Q206.3809954751131 498.48280542986424 246.63959276018096 515.9484162895927Q286.89819004524884 533.4140271493212 330.4497737556561 533.4140271493212Q387.8638009049774 533.4140271493212 427.08800904977375 510.17262443438915Q466.3122171945701 486.931221719457 486.05361990950223 438.931221719457Q505.7950226244344 390.931221719457 505.7950226244344 317.41402714932127V0H430.206334841629V313Q430.206334841629 364.72352941176473 416.3961538461539 398.3610859728507Q402.58597285067873 431.9986425339367 375.0 448.0846153846154Q347.41402714932127 464.17058823529413 306.27647058823527 463.2049773755656Q271.62171945701357 463.2049773755656 243.00135746606333 451.6361990950226Q214.3809954751131 440.06742081447965 193.03642533936653 419.96425339366516Q171.69185520361992 399.8610859728507 159.89886877828053 373.7407239819005Q148.10588235294117 347.62036199095024 148.10588235294117 318V0H110.55294117647058Q103.75927601809954 0 94.63823529411764 0.0Q85.51719457013574 0 72.51719457013574 0Z"/><path transform="translate(2000.27,0)" d="M285.3108597285068 -10Q213.82805429864254 -10 157.58665158371042 25.241402714932125Q101.34524886877828 60.48280542986425 68.60384615384615 121.72420814479638Q35.86244343891403 182.9656108597285 35.86244343891403 261.4484162895928Q35.86244343891403 340.4484162895928 68.87963800904977 401.6898190045249Q101.89683257918551 462.931221719457 157.8968325791855 498.17262443438915Q213.8968325791855 533.4140271493212 283.862443438914 533.4140271493212Q323.37963800904976 533.4140271493212 359.6210407239819 521.1726244343891Q395.862443438914 508.931221719457 424.862443438914 487.431221719457Q453.862443438914 465.931221719457 472.6898190045249 438.6210407239819Q491.51719457013576 411.3108597285068 496.17194570135746 381.17330316742084L472.8954751131222 389V740H548.4841628959276V0H473.92986425339365L471.8610859728507 130.17194570135746L491.3438914027149 137.41266968325792Q486.6891402714932 108.7579185520362 468.1031674208145 82.4133484162896Q449.51719457013576 56.068778280542986 421.7242081447964 35.03438914027149Q393.931221719457 14 358.6554298642534 2.0Q323.37963800904976 -10 285.3108597285068 -10ZM295.69049773755654 58.82941176470588Q347.862443438914 58.82941176470588 388.7757918552036 85.15678733031675Q429.6891402714932 111.4841628959276 453.2923076923077 157.12171945701357Q476.8954751131222 202.75927601809954 476.8954751131222 261.9656108597285Q476.8954751131222 320.6547511312217 453.5509049773756 366.29230769230765Q430.206334841629 411.92986425339365 389.29298642533934 438.25723981900455Q348.37963800904976 464.5846153846154 295.69049773755654 464.5846153846154Q242.4841628959276 464.5846153846154 201.570814479638 438.25723981900455Q160.6574660633484 411.92986425339365 137.3128959276018 366.29230769230765Q113.9683257918552 320.6547511312217 113.9683257918552 261.9656108597285Q113.9683257918552 203.79366515837103 137.05429864253392 157.8975113122172Q160.14027149321265 112.00135746606335 201.05361990950226 85.41538461538462Q241.96696832579187 58.82941176470588 295.69049773755654 58.82941176470588Z"/></g><path d="M44.0,89.8 L506.3,89.8 C534.9,89.8 550.3,89.8 562.7,71.3" fill="none" stroke="#B45309" stroke-width="3.30" stroke-linecap="round"/><circle cx="562.7" cy="71.3" r="3.74" fill="#B45309"/></svg>